# xmcd
#
# Track frame offsets: 
#        150
#        19587
#        42365
#        61050
#        85164
#        111076
#        130351
#        145914
#        169967
#        191215
#        210765
#        236178
#        258458
#
# Disc length: 3808 seconds
#
# Revision: 7
# Processed by: cddbd v1.5.2PL0 Copyright (c) Steve Scherf et al.
# Submitted via: ExactAudioCopyFreeDBPlugin 1.0
#
DISCID=b60ede0d
DTITLE=伊藤由奈 - HEART
DYEAR=2007
DGENRE=JPop
TTITLE0=WORKAHOLIC
TTITLE1=ENDLESS STORY
TTITLE2=losin'
TTITLE3=Know-how
TTITLE4=Precious
TTITLE5=Tender is the Night
TTITLE6=Fragile
TTITLE7=Nobody Knows
TTITLE8=Faith
TTITLE9=Stay for Love
TTITLE10=Truth
TTITLE11=Perfume
TTITLE12=Precious -wedding extended ver.-
EXTD=YEAR: 2007
EXTT0=
EXTT1=
EXTT2=
EXTT3=
EXTT4=
EXTT5=
EXTT6=
EXTT7=
EXTT8=
EXTT9=
EXTT10=
EXTT11=
EXTT12=
PLAYORDER=
